<svg width="26" height="26" viewBox="0 0 26 26" fill="none" xmlns="http://www.w3.org/2000/svg">
<path fill-rule="evenodd" clip-rule="evenodd" d="M18.3357 16.6606L22.9907 21.3601C23.1948 21.5712 23.3104 21.8581 23.3125 22.158C23.3145 22.4579 23.2028 22.7464 23.0016 22.9606C22.9005 23.0713 22.7791 23.1595 22.6445 23.22C22.5099 23.2804 22.365 23.3119 22.2185 23.3125C21.9385 23.3113 21.6697 23.1975 21.4681 22.9947L16.8783 18.3633C15.8471 19.2733 14.5997 19.876 13.2677 20.1079C11.9357 20.3397 10.5684 20.1922 9.30999 19.6808C8.05161 19.1694 6.94875 18.3131 6.11771 17.2022C5.28668 16.0912 4.75825 14.7669 4.58816 13.3687L2.7392 9.89514C2.70622 9.83395 2.68845 9.76511 2.68754 9.69491C2.68662 9.62472 2.70258 9.5554 2.73395 9.4933C2.76533 9.4312 2.81111 9.37829 2.86713 9.33943C2.92315 9.30056 2.9876 9.27697 3.05461 9.27081L5.33862 8.8281C6.06967 7.31034 7.24752 6.07705 8.69938 5.30917L9.11267 3.03889C9.1233 2.97191 9.14932 2.90862 9.18851 2.85444C9.2277 2.80026 9.27889 2.7568 9.3377 2.72779C9.39651 2.69878 9.46117 2.68507 9.52616 2.68785C9.59116 2.69063 9.65453 2.70981 9.71087 2.74375L12.9737 4.54862C13.039 4.55998 13.1055 4.57511 13.1719 4.59025C13.3049 4.62052 13.4378 4.65079 13.5611 4.65079C13.8495 4.711 14.1032 4.88834 14.2664 5.14379C14.4296 5.39925 14.4888 5.7119 14.4311 6.01296C14.3735 6.31401 14.2035 6.57882 13.9588 6.74913C13.714 6.91943 13.4145 6.98128 13.126 6.92107C12.7685 6.84207 12.4038 6.804 12.0384 6.80755C10.8857 6.80902 9.76437 7.19889 8.84115 7.91913C7.91793 8.63937 7.24221 9.65149 6.91455 10.8049C6.5869 11.9582 6.62483 13.1912 7.02269 14.3202C7.42056 15.4493 8.15709 16.4141 9.12268 17.071C10.0883 17.728 11.2313 18.042 12.3816 17.9663C13.532 17.8906 14.6282 17.4292 15.507 16.6509C16.3859 15.8726 17.0005 14.8188 17.2593 13.6466C17.5182 12.4743 17.4074 11.2461 16.9436 10.1449C16.8299 9.87069 16.8245 9.56083 16.9283 9.28246C17.0321 9.00409 17.2369 8.77966 17.4982 8.65783C17.6296 8.59771 17.771 8.5653 17.9144 8.56245C18.0578 8.5596 18.2003 8.58638 18.3337 8.64124C18.4672 8.6961 18.5889 8.77796 18.6919 8.88211C18.7949 8.98626 18.8771 9.11065 18.9339 9.24811C19.4278 10.4393 19.6317 11.7395 19.5273 13.0328C19.423 14.3261 19.0136 15.5724 18.3357 16.6606ZM16.7104 8.38115C16.5154 8.51711 16.2862 8.58968 16.0517 8.58968C15.7373 8.58968 15.4358 8.45932 15.2134 8.22728C14.9911 7.99524 14.8662 7.68053 14.8662 7.35237C14.8662 7.10766 14.9357 6.86844 15.066 6.66496C15.1963 6.46149 15.3814 6.3029 15.598 6.20925C15.8147 6.11561 16.053 6.0911 16.283 6.13884C16.513 6.18659 16.7242 6.30443 16.89 6.47747C17.0558 6.65051 17.1687 6.87097 17.2144 7.11099C17.2602 7.351 17.2367 7.59978 17.147 7.82587C17.0573 8.05196 16.9053 8.2452 16.7104 8.38115Z" fill="white"/>
</svg>
